HIERARCHY
ROOT Hips
{
  OFFSET -310.743 85.7549 305.375
  CHANNELS 6 Xposition Yposition Zposition Zrotation Xrotation Yrotation
  JOINT ToSpine
  {
    OFFSET -0.0105055 1.38907 -7.13956
    CHANNELS 3 Zrotation Xrotation Yrotation
    JOINT Spine
    {
      OFFSET 0.0105055 10 1
      CHANNELS 3 Zrotation Xrotation Yrotation
      JOINT Spine1
      {
        OFFSET 0 12 1.60637
        CHANNELS 3 Zrotation Xrotation Yrotation
        JOINT Neck
        {
          OFFSET 0 27 2.26658
          CHANNELS 3 Zrotation Xrotation Yrotation
          JOINT Head
          {
            OFFSET 0 9 2.12705
            CHANNELS 3 Zrotation Xrotation Yrotation
            End Site
            {
              OFFSET 0 11 2
            }
          }
        }
        JOINT LeftShoulder
        {
          OFFSET 8 19.6109 2.86452
          CHANNELS 3 Zrotation Xrotation Yrotation
          JOINT LeftArm
          {
            OFFSET 12 1 0.681055
            CHANNELS 3 Zrotation Xrotation Yrotation
            JOINT LeftForeArm
            {
              OFFSET 19 0 -1.52608
              CHANNELS 3 Zrotation Xrotation Yrotation
              JOINT LeftHand
              {
                OFFSET 23 0 0
                CHANNELS 3 Zrotation Xrotation Yrotation
                End Site
                {
                  OFFSET 10 0 0
                }
              }
            }
          }
        }
        JOINT RightShoulder
        {
          OFFSET -8 19.6109 2.86452
          CHANNELS 3 Zrotation Xrotation Yrotation
          JOINT RightArm
          {
            OFFSET -12 1 0.681055
            CHANNELS 3 Zrotation Xrotation Yrotation
            JOINT RightForeArm
            {
              OFFSET -19 0 -1.52608
              CHANNELS 3 Zrotation Xrotation Yrotation
              JOINT RightHand
              {
                OFFSET -23 0 0
                CHANNELS 3 Zrotation Xrotation Yrotation
                End Site
                {
                  OFFSET -10 0 0
                }
              }
            }
          }
        }
      }
    }
  }
  JOINT LeftUpLeg
  {
    OFFSET 9 -7.17245 0
    CHANNELS 3 Zrotation Xrotation Yrotation
    JOINT LeftLeg
    {
      OFFSET 0 -44.1113 0
      CHANNELS 3 Zrotation Xrotation Yrotation
      JOINT LeftFoot
      {
        OFFSET 0 -36.1829 0
        CHANNELS 3 Zrotation Xrotation Yrotation
        JOINT LeftToeBase
        {
          OFFSET 0 -4.84184 13
          CHANNELS 3 Zrotation Xrotation Yrotation
          End Site
          {
            OFFSET 0 1 6
          }
        }
      }
    }
  }
  JOINT RightUpLeg
  {
    OFFSET -9 -7.17245 0
    CHANNELS 3 Zrotation Xrotation Yrotation
    JOINT RightLeg
    {
      OFFSET 0 -44.0551 0
      CHANNELS 3 Zrotation Xrotation Yrotation
      JOINT RightFoot
      {
        OFFSET 0 -36.1469 0
        CHANNELS 3 Zrotation Xrotation Yrotation
        JOINT RightToeBase
        {
          OFFSET 0 -4.92256 13
          CHANNELS 3 Zrotation Xrotation Yrotation
          End Site
          {
            OFFSET 0 1 6
          }
        }
      }
    }
  }
}
MOTION
Frames:	21
Frame Time:	0.0333333
-313.207 85.7268 307.649 -2.42776 2.27576 122.794 0 0 0 4.69657 14.4491 14.4224 -13.9308 -2.57902 17.1005 6.1823 -18.2362 -7.66185 -4.67831 12.799 -4.66173 -18.0858 2.69369 -7.67609 -38.3532 30.418 48.4475 65.0248 -17.4119 -97.9347 -1.90996 0.15807 -8.68937 8.84941 2.44445 11.3846 41.2195 -13.0324 7.37441 -18.1907 -4.96808 104.764 -1.44982 -0.0740619 5.79679 7.66924 -45.7226 14.2318 -0.240418 59.0772 0.436165 24.1668 -16.1514 3.50331 1.48003 -16.7741 -3.75134 -5.86976 17.1447 1.84859 0.107917 30.6002 7.12173 -24.42 -5.72613 -1.22114 11.2402 -40.0846 -1.21951 
-306.209 86.0514 301.108 -2.67031 -1.38842 130.581 0 0 0 11.0075 7.88574 12.0275 -17.4903 1.30687 15.4942 9.94707 -19.2026 -9.54901 -5.2553 12.6935 -5.75846 -10.9196 2.25043 -8.72218 -41.6727 28.135 47.8353 63.7973 -18.4675 -98.8603 -0.409111 0.0515417 -10.498 6.87364 2.26291 11.8222 41.8004 -13.6945 8.44533 -18.6024 -6.167 107.701 -0.254733 -0.0138271 5.90525 4.01518 -48.2385 8.36269 0.88854 45.5529 -9.50266 21.6359 -8.82131 1.67716 1.44586 -18.1864 -3.12601 0.848592 20.9455 -0.163151 -0.438386 27.085 6.84228 -27.8205 5.99783 1.55334 7.33658 -29.2039 -4.47462 
-297.167 86.4063 292.232 -2.50778 -3.08061 133.6 0 0 0 12.5849 3.33444 12.2097 -16.9851 2.01723 14.7862 10.0052 -17.0606 -10.1406 -4.14279 12.798 -6.50935 -11.7279 2.241 -8.29777 -42.9223 27.1818 51.0135 65.8101 -21.2919 -99.2643 2.01468 -0.196673 -10.9554 5.6059 1.89415 10.6039 44.495 -7.19485 7.61656 -18.5014 -7.11569 110.314 1.12122 0.0769173 7.4723 3.44951 -46.3777 10.7325 -0.224789 32.5163 -18.1642 16.9487 -6.21558 0.817449 1.02606 -13.8457 -0.489474 4.06474 22.9682 0.547418 -0.397328 30.6641 6.67406 -31.2608 6.06234 1.61725 4.89929 -19.0942 -5.72793 
-289.86 86.81 284.607 -0.859694 -2.86507 133.407 0 0 0 14.1102 1.56376 11.6333 -17.013 4.06804 14.3656 10.1783 -12.335 -9.57948 -4.64274 10.4829 -5.62629 -16.0231 2.63278 -8.0161 -43.6147 25.0016 48.6556 67.7351 -19.7099 -97.8616 1.63264 -0.173022 -12.1805 8.95036 2.47138 11.4512 47.2477 0.0102504 3.36458 -18.4314 -6.40481 108.507 1.73114 0.12249 8.19873 4.75044 -41.7282 14.0519 -0.0144008 29.9902 -17.0878 10.2521 -5.10331 0.528747 0.929444 -9.6813 -1.65053 4.43625 20.9094 -1.8256 -0.0237195 42.6016 2.42405 -28.8122 -2.01196 -0.45948 5.98321 -22.9926 -3.77714 
-282.872 87.4827 277.183 0.734339 -1.7139 134.052 0 0 0 12.8069 2.53922 8.7136 -14.9021 3.7344 11.5057 9.86529 -10.714 -7.51922 -5.15897 10.8141 -3.46426 -22.4631 2.86998 -6.49141 -43.1499 21.023 39.8513 70.722 -13.8241 -94.7773 0.878663 -0.073111 -10.0975 12.7988 3.04108 11.7521 51.1642 6.92155 -1.83793 -20.4159 -4.01529 100.654 2.01419 0.132408 7.50542 4.79503 -37.1954 15.3362 -0.0496692 35.1179 -13.95 12.6836 1.6144 -0.276694 1.15077 -12.8154 -2.37037 3.48667 14.6024 -6.09399 -0.221826 58.4153 -3.68751 -25.6141 -6.36198 -1.45792 4.63692 -17.9202 -4.98038 
-275.911 87.2365 269.884 0.730477 1.06965 134.179 0 0 0 7.94578 5.29333 5.41781 -12.2393 1.05185 7.9238 11.6343 -10.3731 -4.89753 -5.85829 10.822 -0.399124 -28.4145 3.12829 -5.52209 -40.932 17.072 28.0066 68.2871 -8.4574 -93.3518 -2.78632 0.296315 -6.10125 17.3943 3.56908 11.2646 54.5105 9.73461 -8.21295 -22.8329 1.00306 87.6191 1.80185 0.121715 7.84053 3.18126 -33.1714 16.2707 -0.000661917 45.8705 -14.1944 17.9173 -5.26256 0.886788 0.698343 -8.91602 -0.572064 -0.543029 4.96044 -7.91426 -0.176068 75.1871 -9.4987 -27.0158 -12.3677 -2.99511 3.58981 -13.1789 -6.25571 
-269.38 86.3796 263.198 -2.02616 6.13695 131.728 0 0 0 -0.217635 7.98228 3.84357 -10.5828 -1.27899 5.67526 13.4221 -9.6077 -2.14209 -5.35599 10.1325 2.45103 -32.3663 3.38579 -5.30002 -36.6608 15.2983 13.1466 75.9212 -2.50308 -90.6275 5.26977 -1.39084 -14.2266 20.8575 4.16145 11.659 56.3458 7.07398 -15.024 -26.1973 8.59974 73.0948 0.861962 0.0567244 7.10747 -1.54652 -27.3166 17.8197 0.00866273 53.0061 -12.1628 20.4771 -17.1152 3.11238 0.670303 -9.97159 -0.0615997 -7.43987 -8.67248 -4.91325 2.27071 88.9085 -15.367 -31.594 -17.7185 -5.05904 4.00151 -15.0331 -6.66245 
-262.589 85.7009 256.526 -1.80239 8.38076 130.67 0 0 0 -3.09239 11.1244 1.34391 -9.83576 -3.40558 2.4891 12.9348 -7.75226 1.07593 -3.86501 9.7986 5.11335 -33.7705 3.51508 -5.30787 -30.8727 15.2001 -2.15039 84.883 1.81823 -89.8372 12.8278 -3.09689 -31.1468 21.4942 4.25076 11.6794 56.7668 2.65414 -22.825 -28.0614 15.5024 63.3717 0.887806 0.0512427 6.38937 -3.92438 -19.1945 17.0236 -0.0261538 55.991 -10.5295 21.0859 -26.6371 4.98622 0.654752 -10.0682 0.129022 -8.03251 -21.5673 -2.07212 179.323 86.5048 165.138 -35.0138 -18.838 -5.98166 5.1114 -19.8962 -4.71178 
-255.002 85.1168 249.172 0.191023 7.48811 131.388 0 0 0 -1.23382 10.8843 -1.941 -8.77027 -3.17088 -0.970963 11.0886 -6.65607 4.31978 -2.76113 10.558 7.54603 -33.1045 3.51238 -5.4368 -22.9343 14.4888 -16.8206 75.2307 1.33156 -89.649 6.0281 -1.61431 -19.0595 19.9245 3.59335 10.0135 55.295 -1.04231 -31.3574 -29.8267 18.5149 61.0189 0.752866 0.0490793 8.31308 -2.6593 -9.67438 15.8592 -0.064513 56.038 -9.99809 22.265 -35.3052 7.18688 0.643285 -8.92999 -0.237541 -4.61417 -31.9843 -0.830298 3.23818 88.5811 -20.6512 -36.1375 -18.8932 -6.20574 5.66089 -21.6357 -3.41324 
-246.947 85.1409 241.432 0.387556 6.74807 131.115 0 0 0 -1.84947 7.55443 -4.51528 -6.78113 -1.59681 -3.65727 10.4354 -5.71004 7.37872 -2.92243 11.8661 10.4418 -29.2497 3.437 -6.24445 -17.9942 11.0086 -27.1125 68.3557 1.71271 -89.3205 1.70228 0.106026 -2.98079 16.9291 2.86605 8.59845 53.963 -1.60821 -38.9706 -29.3153 17.7096 61.5545 0.802449 0.0579446 8.89882 -2.82909 1.3614 16.7074 0.0964539 49.0783 -10.2627 22.8011 -36.0667 7.49552 1.09854 -14.8885 -0.878374 -2.12219 -40.3221 1.30981 0.0585602 76.6189 -16.15 -35.3055 -17.2706 -5.48553 4.70561 -18.1748 -5.1498 
-238.537 85.8007 233.472 2.24035 5.8616 131.814 0 0 0 -1.71946 5.55134 -8.01236 -4.16182 0.0542903 -7.32153 10.4294 -4.64042 10.7363 -3.91884 12.5606 14.0421 -22.7717 3.21689 -7.51572 -18.7166 6.65342 -30.6874 67.0057 1.83914 -89.2197 2.92006 -0.0891766 -3.81061 13.3048 2.33234 7.93642 53.0073 -0.485449 -44.4214 -28.2168 15.593 63.3909 2.46171 0.204763 9.18155 -1.96235 14.4664 16.6696 0.0885843 38.0934 -11.2848 19.4369 -30.0244 5.29189 1.47402 -21.4431 -0.264357 0.0764032 -42.2662 2.56325 -0.0514254 58.518 -11.2653 -21.2823 -13.7679 -2.76187 1.96405 -5.80594 -5.02673 
-229.551 85.8588 224.974 3.62386 5.25992 133.206 0 0 0 -2.67168 2.73528 -11.6814 -0.727779 2.76798 -11.2025 9.12364 -6.40965 14.1492 -4.7887 15.0446 17.0707 -17.238 2.83589 -8.32713 -21.6063 1.86774 -30.5069 64.8658 1.30036 -89.39 3.76145 -0.0874583 -2.57194 9.71178 1.83766 7.22952 50.3954 -0.636599 -48.431 -29.3592 13.2239 67.8706 2.50061 0.196584 9.38063 -1.87444 26.6657 13.7082 -0.514614 27.276 -8.14474 16.1642 -17.1154 2.4475 2.24371 -30.9054 0.977276 0.301131 -39.0586 0.957225 -0.593161 36.2747 -3.12541 -13.515 -5.7761 -0.475074 1.93516 -6.28515 -4.05862 
-220.369 85.184 216.448 3.35848 4.88579 135.457 0 0 0 -5.55753 -1.31004 -14.6231 2.87181 5.62692 -14.4255 8.22685 -9.12781 16.1001 -6.1611 17.5725 18.9055 -12.7162 2.44173 -8.77666 -26.1384 -1.73459 -30.4984 63.5792 1.63941 -89.1856 4.67092 -0.0830687 -2.15689 6.98871 1.51073 6.80137 47.2757 -2.99355 -53.3626 -25.9605 8.56897 72.9843 4.04586 0.494239 12.5849 -1.2814 33.4634 9.32536 -0.0941814 24.5104 -5.45732 15.5524 -7.31902 0.994581 1.64136 -24.7065 0.100667 -0.562532 -35.5267 -0.220057 0.259132 20.7912 2.4792 -22.1196 0.22717 0.0390678 4.46661 -17.1169 -5.63546 
-212.651 85.159 209.404 3.00757 4.55182 137.746 0 0 0 -7.25894 -2.99198 -15.362 5.74802 6.93517 -15.8212 6.50131 -10.1718 16.1114 -5.83116 17.359 18.3405 -13.1545 2.40959 -8.41865 -29.3538 -1.21944 -32.5991 62.6663 1.99369 -88.9698 6.01797 -0.137622 -2.5927 6.63539 1.46931 6.73909 44.5603 -6.49927 -57.4705 -23.6243 6.23215 76.0613 4.23506 0.492164 11.7007 0.353097 32.6246 7.25491 0.274495 33.3584 -4.22647 17.3434 -5.1825 0.792117 1.13422 -15.8935 -0.563798 -1.66244 -34.8167 0.817644 -0.0316358 20.4516 3.01675 -22.0197 6.24896 1.06524 4.55704 -18.1239 -8.32607 
-206.19 85.4802 203.368 4.08687 4.61601 138.979 0 0 0 -4.9086 -0.998454 -13.7472 5.92304 6.44287 -14.9643 4.8829 -10.3688 14.9394 -4.11077 14.9926 16.2786 -18.9701 2.95315 -8.00201 -29.3225 2.44083 -32.5022 63.5818 -0.543235 -90.2699 4.7475 -0.118627 -2.58949 10.1354 1.78743 6.73999 44.4001 -9.20936 -54.6475 -27.8623 8.96856 73.5693 2.13492 0.105707 6.49796 2.20716 26.9648 6.72628 0.162233 49.8367 -0.54354 18.494 -5.94825 0.961126 1.36663 -19.5668 -0.414666 -2.62611 -36.1318 -1.84645 0.148365 31.2426 4.00533 -12.3535 12.9356 1.4993 2.90418 -9.41715 -7.85963 
-200.007 84.4876 197.25 6.42554 4.43629 137.37 0 0 0 1.05751 2.41479 -10.6794 3.05398 3.88111 -11.7355 1.71597 -11.5762 13.7384 -1.96427 12.6549 13.7836 -27.1826 3.56784 -7.22787 -28.594 5.84355 -28.2928 66.8662 -1.72603 -90.7373 3.43851 -0.0681867 -2.30399 15.6413 2.4561 7.37543 44.7072 -10.0045 -44.3317 -31.9935 9.89937 74.6133 2.81494 0.129628 5.38968 4.16963 18.9349 9.72826 0.306258 70.2155 2.84848 19.4809 -8.65967 1.49486 1.57394 -22.2516 -1.0959 -1.51221 -37.6512 -5.3999 0.0331336 47.6308 6.93708 -12.4738 6.78707 0.54844 2.12786 -6.16564 -6.9349 
-194.579 83.5346 191.748 8.74124 1.94854 134.351 0 0 0 7.66509 4.98595 -7.33098 1.26548 1.31046 -7.86971 -2.39271 -13.1563 12.714 -0.727739 11.7677 11.6186 -33.2888 3.89063 -6.35276 -30.9485 5.35685 -20.2467 66.8016 0.875085 -89.625 3.57434 -0.064945 -1.94389 19.7812 3.24517 8.81434 43.3523 -8.04563 -27.7195 -30.4584 8.17778 76.4022 2.83522 0.114263 4.57142 8.09095 6.41061 13.2746 -27.3243 89.6527 30.4917 22.8201 -13.1032 2.67055 1.50415 -21.9181 0.574324 2.89352 -36.7012 -6.1235 -0.0565607 57.6037 8.21182 -21.6275 -2.85112 -0.521212 3.27489 -11.6107 -7.69933 
-189.798 83.7469 187 8.99335 0.648942 132.549 0 0 0 9.85484 7.1798 -4.6313 0.934164 -0.432783 -4.91044 -3.59427 -10.8854 11.3236 -0.950766 10.237 10.2098 -35.0055 3.907 -5.99234 -32.0997 2.87997 -8.01847 65.2171 -0.541377 -90.2499 2.07409 -0.029503 -2.31506 22.5242 4.12357 10.6934 38.1031 -4.79239 -9.23903 -28.8264 8.96005 74.1989 1.07007 0.0464259 5.1302 10.2181 -8.87457 14.7872 -179.888 77.7273 -179.872 25.5319 -16.7612 3.82076 1.27931 -19.2683 0.274138 4.57213 -33.7254 -6.01314 -0.0370009 61.2922 7.63137 -25.1489 -9.57326 -2.09978 3.21006 -11.2794 -7.67664 
-185.28 84.2372 182.356 7.61005 1.69717 131.75 0 0 0 10.0021 8.91164 -2.04256 -1.62354 -1.86978 -1.61678 -3.34703 -7.67202 8.99092 -0.674313 9.92391 7.93508 -33.8751 3.59774 -5.47252 -27.5302 2.43985 1.97428 65.6077 -5.88555 -92.6622 1.55105 -0.0448787 -3.36377 21.6325 4.33162 11.894 33.2317 -3.94764 4.17418 -28.8663 8.5118 74.9706 -1.28308 -0.0655375 5.77187 9.51423 -23.519 15.8711 179.89 73.9664 -179.32 25.3605 -19.0897 4.32281 1.43707 -17.5008 -2.90478 2.1995 -29.9092 -6.80935 0.0145757 64.0293 6.78458 -28.3235 -15.5816 -3.98642 3.51052 -12.8169 -6.87703 
-180.651 85.7181 177.495 6.94124 2.67572 131.597 0 0 0 12.7304 9.8756 0.359684 -7.09113 -2.19568 2.11398 -1.30477 -4.93469 5.42306 -0.858962 9.67132 5.12233 -29.4783 3.31008 -5.81377 -20.4816 2.59441 6.44186 62.3879 -8.76154 -94.5553 1.55577 -0.032366 -2.19914 16.4899 3.61489 11.976 31.7213 -5.41373 10.8139 -27.788 6.27317 78.2856 -2.6296 -0.131351 5.78834 9.63474 -34.4118 17.1477 -179.5 78.9552 -177.374 24.3994 -19.9699 4.35954 1.39758 -16.2429 -3.01594 0.179182 -24.0253 -8.15237 0.000103383 63.1304 6.95637 -32.7753 -16.8028 -4.92243 4.5208 -17.5722 -7.43653 
-175.584 88.7122 172.148 7.2631 4.80576 132.762 0 0 0 13.904 10.1715 1.84357 -11.0459 -0.327758 4.67772 2.4811 -1.20371 1.66533 -2.11816 6.81701 2.88637 -24.4945 3.19717 -6.87397 -13.3449 0.871699 8.39962 57.8246 -8.11707 -95.0763 0.235629 -0.00196787 -1.44708 11.7248 2.81775 11.3097 29.0938 -7.7461 12.7464 -24.8701 4.15357 81.1193 -3.17051 -0.192497 6.86511 8.27786 -38.0575 16.3102 2.64052 88.6037 -0.995088 20.5775 -19.5758 3.58774 1.16505 -13.993 -1.90696 -2.05019 -16.2427 -9.51495 -0.00995515 59.9727 7.74974 -31.434 -9.65118 -2.73322 6.55918 -26.6901 -6.25067 
